<svg version="1.1" xmlns="http://www.w3.org/2000/svg" xmlns:xlink="http://www.w3.org/1999/xlink" width="263.05273" height="356.08447" viewBox="0,0,263.05273,356.08447"><defs><linearGradient x1="232.125" y1="260.37505" x2="241.375" y2="260.37505" gradientUnits="userSpaceOnUse" id="color-1"><stop offset="0" stop-color="#67ceff"/><stop offset="1" stop-color="#1d7ba7"/></linearGradient></defs><g transform="translate(-108.47364,-1.95776)"><g data-paper-data="{&quot;isPaintingLayer&quot;:true}" fill-rule="nonzero" stroke-linecap="butt" stroke-linejoin="miter" stroke-miterlimit="10" stroke-dasharray="" stroke-dashoffset="0" style="mix-blend-mode: normal"><g fill="#ac6033" stroke="none" stroke-width="0"><path d="M225.31974,148.58399c0.36299,-2.05666 1.39268,-6.38468 1.39268,-6.38468c0,0 34.13815,-0.27347 41.53344,-0.3336c2.73995,-0.02228 5.13264,-0.79579 5.13264,-0.79579c0,0 0.75166,-2.76669 0.75343,-5.19519c0.00615,-8.40565 -0.20887,-54.99955 -0.20887,-54.99955c0,0 -16.49973,-0.76256 -15.82387,-1.65424c4.95613,-6.53876 9.79418,-11.70126 13.97831,-14.63713c3.77037,-2.64555 7.00975,-3.48304 9.32605,-1.89025c14.10761,9.70102 16.98516,41.74746 13.40728,75.49106c-0.69966,6.59861 -1.79843,12.62345 -3.20821,18.12304c-2.31063,9.71053 -43.25197,6.72619 -46.62623,2.08326c0,0 -21.24098,-0.83021 -19.65665,-9.80693z"/><path d="M227.47638,169.64081c-16.50607,-22.71209 20.68804,-21.42646 35.92716,-10.94736c14.10761,9.70102 34.98516,-54.25254 31.40728,-20.50894c-6.90076,65.08243 -52.62784,74.34846 -52.62784,74.34846c0,0 1.79947,-20.18007 -14.7066,-42.89216z"/></g><g fill="#b42c20" stroke-width="0"><path d="M126.70228,301.45518c-22.15722,-27.99527 -23.34542,-75.69225 -7.73365,-115.18202c16.47552,-41.67462 47.08185,-55.56201 47.08185,-55.56201c0,0 5.88329,9.16409 13.73677,16.61992c5.23599,4.97088 14.23175,24.07956 21.71161,30.93187c7.01279,6.42443 19.04718,7.11972 19.04718,7.11972c0,0 -16.58425,17.34608 -19.21616,42.5925c-2.10202,20.16352 20.66162,27.35197 18.98083,29.65598c-1.98204,2.71698 -14.20176,6.86257 -27.03074,9.27085c-14.94212,2.80496 -30.62684,3.67269 -30.62684,3.67269c0,0 1.36127,4.61197 10.7932,4.70015c28.09389,0.26263 37.00527,-8.83004 55.18166,-14.10048c0.01272,0.3714 9.78256,4.8612 9.78256,4.8612c0,0 5.21113,-7.39389 6.50362,-9.55847c2.69171,-0.25547 4.57344,0.59918 7.68535,0.58695c25.06486,-0.12959 30.87493,20.01624 33.44438,42.57385c2.56946,22.55762 49.42165,49.28333 -22.01798,57.74019c-14.2367,1.38812 -93.32713,-0.33407 -137.32362,-55.92287z" stroke="#000000"/><path d="M249.1208,142.47045c-23.18301,28.28775 -13.69696,35.69421 -32.63654,35.73735c-18.93958,0.04313 -10.61107,-8.71623 -32.93358,-35.588c-21.42177,-25.78746 -26.33916,-29.32698 -30.27059,-33.662c-6.94288,-7.65562 -17.91679,-18.75 -17.91679,-18.75c0,0 55.96886,-43 83.25,-43c26.53129,0 78.25,43 78.25,43c0,0 -6.37756,6.79215 -16.92142,18.25c-10.54385,11.45785 -7.63807,5.7249 -30.82108,34.01265z" data-paper-data="{&quot;index&quot;:null}" stroke="none"/><path d="M135.6133,90.20806c0,0 -11.59103,-22.52181 4,-45.75c15.46362,-23.03836 37.75,-42.5 37.75,-42.5l15.5,71z" data-paper-data="{&quot;index&quot;:null}" stroke="none"/><path d="M231.21982,71.95776l23.75,-70c0,0 22.28638,19.46164 37.75,42.5c15.59104,23.2282 4,45.75 4,45.75z" data-paper-data="{&quot;index&quot;:null}" stroke="none"/></g><path d="M253.09952,257.164c0,0 13.05744,-0.19935 24.72111,2.62788c11.66367,2.82722 19.53498,7.26571 35.07327,12.44597c17.46213,5.82164 23.64308,10.20772 52.76926,15.21548c19.25898,3.31126 -12.22046,40.40026 -46.63724,55.17471c-34.41678,14.77444 -38.42896,12.76612 -51.76417,14.47797c-21.518,2.76227 -36.95017,-1.46753 -36.95017,-1.46753l19.90558,-22.94466l-18.22844,-18.26566l17.65295,-16.21987l-17.63846,-16.53701z" fill="#afafaf" stroke="#000000" stroke-width="0"/><path d="M204.92634,69.73977c-6.9548,-5.52741 -16.45653,-11.782 -16.45653,-11.782c0,0 -3.54354,-16.08216 8.79775,-21.83462c5.63708,-2.62753 19.71502,-4.06589 28.1748,-0.59841c7.83164,3.21002 12.77649,11.62488 13.02745,15.43303c0.38376,5.82319 -0.45761,11.17016 -1.97054,15.94398c-0.35579,1.12265 -3.16951,5.61569 -3.16951,5.61569l-23.25964,0.03802c0,0 -3.8483,-1.78609 -5.14378,-2.8157z" fill="#ac6033" stroke="none" stroke-width="0"/><path d="M228.70425,169.71611c0,4.38422 -4.49158,9.58437 -12.85713,9.3477c-8.50987,-0.24074 -12.85714,-4.96348 -12.85714,-9.3477c0,-1.94985 0.54185,-4.55426 2.38893,-5.9361c2.30606,-1.72521 6.61306,-1.57366 10.46821,-1.57366c3.66263,0 8.388,0.29396 10.68567,1.87218c2.05789,1.41351 2.17146,3.56615 2.17146,5.63758z" fill="#292929" stroke="none" stroke-width="0"/><path d="" fill="url(#color-1)" stroke="none" stroke-width="0"/><path d="M148.125,103.25029h12v20.5c0,0 -5.01337,-0.15825 -6.04154,-1.91471c-2.1163,-3.61534 -5.95846,-18.58529 -5.95846,-18.58529z" data-paper-data="{&quot;index&quot;:null}" fill="#afafaf" stroke="none" stroke-width="0"/><path d="M278.16654,121.83558c-1.02817,1.75646 -6.04154,1.91471 -6.04154,1.91471v-20.5h12c0,0 -3.84216,14.96995 -5.95846,18.58529z" data-paper-data="{&quot;index&quot;:null}" fill="#afafaf" stroke="none" stroke-width="0"/><path d="M200.82961,125.79527c0,-11.32106 0,-32.44383 0,-38.68499c0,-3.41088 2.93217,-7.13087 6.03004,-7.13087c8.38811,0 47.46449,0 62.3104,0c3.57333,0 5.74289,4.0429 5.74289,7.66569c0,6.54001 0,28.36545 0,39.2198c0,3.78776 -2.46364,6.23952 -5.1686,6.23952c-8.00977,0 -48.34891,0 -63.31541,0c-3.48918,0 -5.59933,-2.91688 -5.59933,-7.30915z" data-paper-data="{&quot;index&quot;:null}" fill="#292929" stroke="none" stroke-width="0"/><path d="M233.45836,125.79528c0,4.39227 -2.11015,7.30915 -5.59933,7.30915c-14.9665,0 -55.30564,0 -63.3154,0c-2.70496,0 -5.16861,-2.45176 -5.16861,-6.23952c0,-10.85435 0,-32.67979 0,-39.2198c0,-3.62279 2.16957,-7.66569 5.7429,-7.66569c14.84591,0 53.92229,0 62.3104,0c3.09787,0 6.03004,3.71999 6.03004,7.13087c0,6.24116 0,27.36393 0,38.68499z" data-paper-data="{&quot;index&quot;:null}" fill="#292929" stroke="none" stroke-width="0"/><g stroke="none"><g fill="#ac6132" stroke-width="0"><path d="M164.48517,137.46677c0,0 0,-46.25996 0,-54.96667c0,-2.71127 2.75354,-5.33334 5.9315,-5.33334c13.00857,0 78.71948,0 78.71948,0v60.30001z"/><path d="M205.15183,137.46677v-60.30001c0,0 45.71091,0 58.71948,0c3.17796,0 5.9315,2.62207 5.9315,5.33334c0,8.70672 0,54.96667 0,54.96667z" data-paper-data="{&quot;index&quot;:null}"/></g><g data-paper-data="{&quot;index&quot;:null}" fill="none" stroke-width="1" font-family="sans-serif" font-weight="normal" font-size="12" text-anchor="start"/></g><g stroke="none"><path d="M175.33351,129.74176c-2.04576,0 -3.40434,-1.29789 -3.40434,-3.444c0,-9.2055 0,-34.01701 0,-38.9436c0,-1.66374 1.14194,-3.17908 2.90615,-3.17908c5.05557,0 15.2211,0 18.2672,0c1.68737,0 3.57041,1.33444 3.57041,3.5323c0,9.13133 0,33.16616 0,38.32546c0,1.90542 -1.73263,3.70891 -3.32132,3.70891c-2.9069,0 -12.74516,0 -18.0181,0z" data-paper-data="{&quot;index&quot;:null}" fill="#292929" stroke-width="0"/><g fill="none" stroke-width="1" font-family="sans-serif" font-weight="normal" font-size="12" text-anchor="start"/></g><g stroke="#000000" stroke-width="0"><path d="M252.11217,257.33637l47.7094,-85.60264c0,0 43.61489,15.55474 2.76912,70.09605c-8.48962,11.33618 -50.47852,15.5066 -50.47852,15.5066z" fill="#292929"/><path d="M298.85307,169.50247c0,0 12.47435,7.10237 18.84216,10.72792c14.2609,8.11955 13.59416,22.44414 8.63104,31.16125c-5.95745,10.46347 -20.7966,36.52644 -31.23241,54.85554c-6.41591,11.2687 -25.02166,11.72613 -31.65547,7.94912c-6.26459,-3.56679 -18.27076,-10.4026 -18.27076,-10.4026zM284.02958,240.5999c5.53202,3.1497 12.56996,1.21843 15.71966,-4.31358c3.1497,-5.53202 1.21843,-12.56996 -4.31358,-15.71966c-5.53202,-3.1497 -12.56996,-1.21843 -15.71966,4.31358c-3.1497,5.53202 -1.21843,12.56996 4.31358,15.71966zM264.86373,251.84792c2.2779,1.29694 5.17588,0.50171 6.4728,-1.77618c1.29694,-2.2779 0.50171,-5.17588 -1.77618,-6.4728c-2.2779,-1.29694 -5.17588,-0.50171 -6.4728,1.77618c-1.29694,2.2779 -0.50171,5.17588 1.77618,6.4728zM308.26991,211.85759c1.95247,1.11166 4.43643,0.43004 5.5481,-1.52243c1.11166,-1.95247 0.43004,-4.43643 -1.52243,-5.5481c-1.95247,-1.11166 -4.43643,-0.43004 -5.5481,1.52243c-1.11166,1.95247 -0.43004,4.43643 1.52243,5.5481zM294.19212,204.23465c1.95247,1.11166 4.43643,0.43004 5.5481,-1.52243c1.11166,-1.95247 0.43004,-4.43643 -1.52243,-5.5481c-1.95247,-1.11166 -4.43643,-0.43004 -5.5481,1.52243c-1.11166,1.95247 -0.43004,4.43643 1.52243,5.5481zM305.13272,201.58601c1.95247,1.11166 4.43643,0.43004 5.5481,-1.52243c1.11166,-1.95247 0.43004,-4.43643 -1.52243,-5.5481c-1.95247,-1.11166 -4.43643,-0.43004 -5.5481,1.52243c-1.11166,1.95247 -0.43004,4.43643 1.52243,5.5481zM297.46734,214.88141c1.95247,1.11166 4.43643,0.43004 5.5481,-1.52243c1.11166,-1.95247 0.43004,-4.43643 -1.52243,-5.5481c-1.95247,-1.11166 -4.43643,-0.43004 -5.5481,1.52243c-1.11166,1.95247 -0.43004,4.43643 1.52243,5.5481z" fill="#ac6132"/></g><g stroke="#000000" stroke-width="0"><path d="M224.54615,201.24271c24.72282,-63.49735 60.97465,-34.68741 60.97465,-34.68741l-47.46715,85.73721c0,0 -18.64604,-37.85216 -13.50751,-51.04981z" data-paper-data="{&quot;index&quot;:null}" fill="#292929"/><path d="M236.33162,260.02396c0,0 -12.00613,-6.83578 -18.27076,-10.4026c-6.63381,-3.77701 -15.73648,-20.01045 -9.32057,-31.27914c10.43583,-18.32914 25.27498,-44.39211 31.23241,-54.85554c4.96315,-8.71712 16.94127,-16.60148 31.20217,-8.48192c6.3678,3.62556 18.84216,10.72792 18.84216,10.72792zM269.27222,185.05897c3.1497,-5.53202 1.21843,-12.56996 -4.31358,-15.71966c-5.53202,-3.1497 -12.56996,-1.21843 -15.71966,4.31358c-3.1497,5.53202 -1.21843,12.56996 4.31358,15.71966c5.53202,3.1497 12.56996,1.21843 15.71966,-4.31358zM241.19016,201.00739c1.11166,-1.95247 0.43004,-4.43643 -1.52243,-5.5481c-1.95247,-1.11166 -4.43643,-0.43004 -5.5481,1.52243c-1.11166,1.95247 -0.43004,4.43643 1.52243,5.5481c1.95247,1.11166 4.43643,0.43004 5.5481,-1.52243zM255.01796,208.88026c1.11166,-1.95247 0.43004,-4.43643 -1.52243,-5.5481c-1.95247,-1.11166 -4.43643,-0.43004 -5.5481,1.52243c-1.11166,1.95247 -0.43004,4.43643 1.52243,5.5481c1.95247,1.11166 4.43643,0.43004 5.5481,-1.52243zM251.71173,198.12013c1.11166,-1.95247 0.43004,-4.43643 -1.52243,-5.5481c-1.95247,-1.11166 -4.43643,-0.43004 -5.5481,1.52243c-1.11166,1.95247 -0.43004,4.43643 1.52243,5.5481c1.95247,1.11166 4.43643,0.43004 5.5481,-1.52243zM244.39663,211.31944c1.11166,-1.95247 0.43004,-4.43643 -1.52243,-5.5481c-1.95247,-1.11166 -4.43643,-0.43004 -5.5481,1.52243c-1.11166,1.95247 -0.43004,4.43643 1.52243,5.5481c1.95247,1.11166 4.43643,0.43004 5.5481,-1.52243z" data-paper-data="{&quot;index&quot;:null}" fill="#b42c20"/></g><path d="M233.76464,233.19776l3.7391,-6.63162l6.63162,3.7391l-3.7391,6.63162z" fill="#292929" stroke="none" stroke-width="0"/><path d="M280.72425,171.90908l-6.12268,-3.49673l1.01221,-1.77236l6.12268,3.49673z" fill="#292929" stroke="none" stroke-width="0"/><g fill="#292929" stroke="none" stroke-width="0"><path d="M299.16795,183.81609l3.56823,-6.24788l1.8086,1.03291l-3.56823,6.24788z"/><path d="M304.46385,183.89705l-6.24788,-3.56823l1.03291,-1.8086l6.24788,3.56823z"/></g></g></g></svg>